<svg xmlns="http://www.w3.org/2000/svg" xmlns:xlink="http://www.w3.org/1999/xlink" width="300" height="300"><defs><path id="A" d="M0 .268h299.733V301H0z"/></defs><g fill-rule="evenodd" transform="translate(0 -1)"><mask id="B" fill="#fff"><use xlink:href="#A"/></mask><path fill="#0065ff" d="M278.2.268H21.543C9.642.268 0 9.942 0 21.883v257.502C0 291.327 9.642 301 21.543 301H278.2c5.957 0 11.34-2.418 15.237-6.327a21.58 21.58 0 0 0 6.306-15.287V21.883c0-11.94-9.64-21.615-21.544-21.615" mask="url(#B)"/><path fill="#b3d4ff" d="M71.14 170l-10.447 7.42-2.365 1.67c-2.6 1.52-4.33 4.308-4.33 7.52 0 2.987 1.514 5.626 3.816 7.194v.05l85.803 60.884a9.08 9.08 0 0 0 1.251.934c.013.012.025.026.038.026l.638.36a.37.37 0 0 1 .1.049l.613.274c.062.024.124.036.187.062l.563.2.3.074.5.126.438.062.388.062.838.038h.05l.84-.038c.137-.012.263-.038.388-.062l.438-.062.513-.126.288-.074.576-.2c.05-.026.113-.038.175-.062l.613-.274c.038-.012.074-.036.112-.05l.626-.35c.013-.012.026-.026.05-.038l.626-.423.613-.5 85.804-60.884v-.05c2.302-1.568 3.815-4.207 3.815-7.194 0-3.212-1.74-6-4.33-7.52l-2.364-1.67L227.86 170"/><path fill="#deebff" d="M71.653 136l-13.325 9.517c-2.6 1.53-4.33 4.338-4.33 7.574 0 3.008 1.513 5.667 3.816 7.247v.05l13.325 9.517 72.48 51.812c.388.352.814.665 1.25.94.013.012.025.025.038.025l.638.364a.36.36 0 0 1 .1.049l.613.277.187.063.563.2.3.075.5.126.438.063.388.063.838.038h.05l.84-.038c.137-.013.263-.038.388-.063l.438-.063.513-.126.288-.075.576-.2c.05-.026.113-.038.175-.063l.613-.277c.038-.013.074-.037.112-.05l.626-.35c.013-.013.026-.026.05-.038l.626-.427.613-.515 85.804-61.38c2.302-1.58 3.815-4.24 3.815-7.247 0-3.236-1.738-6.045-4.33-7.574l-2.364-1.68-10.96-7.837"/><path fill="#8fbeff" d="M151.182 237.824c-.136.038-.286.05-.436.076l-.386.05-.836.05h-.05c-.274 0-.56-.026-.835-.05l-.387-.05-.437-.076c-.174-.024-.336-.075-.5-.112l-.3-.075-.56-.2c-.063-.025-.125-.05-.187-.063l-.612-.29-.1-.036-.636-.364c-.013-.013-.025-.013-.038-.025-.436-.276-.86-.59-1.246-.94L61 176.47 71.41 169l72.23 51.78a8.98 8.98 0 0 0 1.246.94c.013.012.025.026.038.026l.636.363a.36.36 0 0 1 .1.049l.612.277c.062.024.124.036.187.062l.56.2.3.075.5.126.437.063.387.062.835.038h.05l.836-.038c.136-.013.262-.038.386-.062l.436-.063.512-.126.287-.075.574-.2c.05-.026.112-.038.174-.062l.61-.277c.038-.013.075-.037.112-.05l.623-.35c.013-.013.026-.026.05-.038l.623-.426.61-.514 72.23-51.78L238 176.47l-82.64 59.25-.6.502h-.012l-.623.438c-.025.012-.038.012-.05.025l-.623.35a.41.41 0 0 1-.112.05l-.61.29a.7.7 0 0 0-.174.063l-.574.2-.287.075-.512.112"/><path fill="#b2d0ff" d="M151.182 204.825c-.136.038-.286.05-.436.076l-.386.05-.836.05h-.05a9.59 9.59 0 0 1-.835-.049l-.387-.05-.437-.076c-.174-.024-.336-.074-.5-.112l-.3-.075-.56-.2c-.063-.024-.125-.05-.187-.062l-.612-.287-.1-.037-.636-.36c-.013-.014-.025-.014-.038-.026-.436-.274-.86-.586-1.246-.935L61 143.792 71.922 136l71.718 51.148a8.98 8.98 0 0 0 1.246.936c.013.012.025.012.038.025l.636.362.1.036.612.288c.062.012.124.038.187.062l.56.2.3.074.5.112c.137.038.287.05.437.076l.387.05.835.05h.05c.287 0 .56-.026.836-.05l.386-.05.436-.076c.175-.024.337-.074.512-.112l.287-.074.574-.2a.72.72 0 0 1 .174-.062l.61-.288a.41.41 0 0 0 .112-.049c.212-.1.412-.224.623-.35.013-.013.026-.013.05-.025l.623-.436h.012l.6-.5L227.077 136 238 143.792l-82.64 58.94-.6.5h-.012l-.623.436c-.025.012-.038.012-.05.026l-.623.348c-.038.026-.074.038-.112.05l-.61.287a.75.75 0 0 0-.174.062l-.574.2-.287.075-.512.112"/><path fill="#fff" d="M150.852 48.112l.888.187.15.038c.725.2 1.413.5 2.05.873h.013a8.79 8.79 0 0 1 1.251.898L240.67 110.9c2.6 1.522 4.33 4.317 4.33 7.537 0 2.994-1.514 5.64-3.816 7.213v.037l-87.043 61.978c-.024.012-.038.012-.05.025l-.626.348c-.038.025-.074.038-.112.05l-.613.288c-.063.012-.125.038-.175.062l-.576.2-.288.074-.513.112c-.137.038-.287.05-.437.076l-.388.05-.84.05h-.05c-.275 0-.563-.026-.838-.05l-.388-.05-.438-.076c-.175-.024-.338-.074-.5-.112l-.3-.074-.563-.2c-.063-.025-.125-.05-.188-.062l-.613-.288-.1-.036-.638-.362c-.013-.013-.025-.013-.038-.025a9.01 9.01 0 0 1-1.251-.936L57.816 125.65c-2.302-1.573-3.816-4.218-3.816-7.213 0-3.22 1.74-6.014 4.33-7.537l85.48-60.792c.387-.337.8-.636 1.25-.898h.012a8.25 8.25 0 0 1 2.039-.873l.15-.038.888-.187.263-.037A7.99 7.99 0 0 1 149.5 48a7.73 7.73 0 0 1 1.089.075l.263.037"/></g></svg>
