<svg xmlns="http://www.w3.org/2000/svg" width="586" height="586" viewBox="0 0 586 586">
  <g fill="#111827" fill-rule="evenodd">
    <path d="M293,586 C131.4398,586 0,454.548927 0,292.992734 C0,131.43654 131.4398,0 293,0 C454.545433,0 586,131.43654 586,292.992734 C586,454.548927 454.545433,586 293,586 Z M293,42.4839464 C154.8505,42.4839464 42.4409328,154.832127 42.4409328,292.992734 C42.4409328,431.124041 154.8505,543.501521 293,543.501521 C431.134733,543.501521 543.5443,431.124041 543.5443,292.992734 C543.5443,154.832127 431.134733,42.4839464 293,42.4839464 L293,42.4839464 Z"/>
    <path fill-rule="nonzero" d="M312.09375,198 C335.0625,198 351,180.103226 351,159.380645 C351,140.541935 336.46875,125 314.90625,125 C291.9375,125 276,142.425806 276,163.619355 C276,181.987097 290.53125,198 312.09375,198 Z M262.165354,472 C291.433071,472 312.80315,450.505455 343,406.581818 L334.173228,399.105455 C314.661417,422.936364 303.047244,433.216364 294.220472,433.216364 C290.03937,433.216364 287.716535,430.88 287.716535,426.207273 C287.716535,422.469091 289.574803,414.992727 291.897638,406.581818 L339.748031,215 L329.992126,215 L240.330709,235.092727 L238.007874,244.438182 L264.488189,260.792727 L230.574803,395.367273 C226.858268,412.189091 225,422.936364 225,434.150909 C225,456.112727 237.543307,472 262.165354,472 Z"/>
  </g>
</svg>
