<svg xmlns="http://www.w3.org/2000/svg" width="556" height="142" viewBox="0 0 556 142">
  <path fill="#111827" d="M272.42,470.12 C281.24,470.12 286.7,463.68 286.7,456.26 C286.7,449.54 281.52,444.08 273.4,444.08 C264.58,444.08 259.12,450.38 259.12,457.8 C259.12,464.38 264.16,470.12 272.42,470.12 Z M254.64,554.4 C265.7,554.4 273.12,547.26 282.92,533.68 L279.56,530.74 C274.24,537.32 270.74,540.68 268.22,540.68 C266.96,540.68 266.26,539.98 266.26,538.58 C266.26,537.46 266.68,535.36 267.38,532.84 L281.66,476.14 L277.32,476.14 L245.54,482.16 L244.7,485.94 L252.12,491.4 L242.32,530.04 C241.2,534.8 240.78,537.74 240.78,541.52 C240.78,548.66 245.54,554.4 254.64,554.4 Z M346.9,554.4 C357.96,554.4 365.38,547.26 375.18,533.68 L371.82,530.74 C366.5,537.32 363,540.68 360.48,540.68 C359.22,540.68 358.52,539.98 358.52,538.58 C358.52,537.46 358.94,535.36 359.64,532.84 L369.86,495.6 C370.7,492.24 370.98,489.72 370.98,487.9 C370.98,480.76 367.06,476.14 359.64,476.14 C346.48,476.14 332.34,488.46 321.28,510.44 L330.8,476.14 L326.46,476.14 L294.54,482.16 L293.7,485.94 L301.12,491.4 L285.72,553 L311.2,553 L316.1,533.96 C321.84,511.98 335.84,493.5 341.72,493.5 C343.54,493.5 344.1,494.48 344.1,496.16 C344.1,497.28 343.68,499.1 343.26,500.64 L334.58,530.04 C333.18,534.66 332.48,537.74 332.48,541.52 C332.48,548.66 337.66,554.4 346.9,554.4 Z M397.3,554.4 C409.2,554.4 419.56,546.42 430.2,531.72 L426.7,529.06 C418.86,538.16 413.68,541.38 409.76,541.38 C407.24,541.38 406.26,539.7 406.26,537.32 C406.26,535.64 406.54,533.68 407.38,530.32 L418.16,486.92 L433.56,486.92 L435.38,479.5 L419.98,479.5 L425.02,458.78 L419.14,458.78 C411.58,468.3 398.14,477.96 385.54,482.02 L384.28,486.92 L392.96,486.92 L382.32,529.34 C381.48,533.54 381.06,536.2 381.06,539.28 C381.06,547.68 387.22,554.4 397.3,554.4 Z M461.56,554.4 C477.1,554.4 488.86,546.14 498.24,531.72 L495.02,528.78 C488.3,536.34 482.28,540.12 475,540.12 C465.76,540.12 460.3,533.82 460.3,521.22 L460.3,518.56 C485.22,514.64 503.7,508.06 503.7,492.24 C503.7,483.42 497.12,476.14 482.7,476.14 C455.4,476.14 435.1,500.92 435.1,526.26 C435.1,543.34 446.02,554.4 461.56,554.4 Z M460.86,513.94 C463.1,498.96 471.64,481.74 480.46,481.74 C483.82,481.74 485.36,484.4 485.36,488.46 C485.36,500.78 477.38,510.02 460.86,513.94 Z M519.24,554.4 C530.16,554.4 537.58,547.26 547.38,533.68 L544.02,530.74 C538.7,537.32 535.2,540.68 532.68,540.68 C531.42,540.68 530.72,539.98 530.72,538.58 C530.72,537.46 531.28,535.36 531.84,532.84 L553.4,443.38 L549.2,443.38 L518.4,449.54 L517.56,453.74 L524.84,457.66 L506.78,530.04 C505.66,534.8 505.38,537.74 505.38,541.52 C505.38,548.66 510,554.4 519.24,554.4 Z M584.62,470.12 C593.44,470.12 598.9,463.68 598.9,456.26 C598.9,449.54 593.72,444.08 585.6,444.08 C576.78,444.08 571.32,450.38 571.32,457.8 C571.32,464.38 576.36,470.12 584.62,470.12 Z M566.84,554.4 C577.9,554.4 585.32,547.26 595.12,533.68 L591.76,530.74 C586.44,537.32 582.94,540.68 580.42,540.68 C579.16,540.68 578.46,539.98 578.46,538.58 C578.46,537.46 578.88,535.36 579.58,532.84 L593.86,476.14 L589.52,476.14 L557.74,482.16 L556.9,485.94 L564.32,491.4 L554.52,530.04 C553.4,534.8 552.98,537.74 552.98,541.52 C552.98,548.66 557.74,554.4 566.84,554.4 Z M622,584.36 C646.64,584.36 666.1,574.14 666.1,556.92 C666.1,546.7 657.98,541.66 645.1,539 L619.62,533.12 C617.38,532.7 615.56,532 615.56,529.76 C615.56,528.08 616.68,526.54 618.78,525.28 C622.28,526.54 626.34,527.1 630.68,527.1 C651.26,527.1 669.04,516.32 669.04,498.26 C669.04,494.06 667.36,489.72 664.56,486.22 L671.28,487.34 L677.58,487.34 L680.66,477.68 L653.92,478.52 C650.28,477.12 646.22,476.14 641.74,476.14 C621.16,476.14 603.66,487.06 603.66,504.56 C603.66,513.52 607.86,519.96 614.86,523.6 C605.9,527.52 599.88,533.26 599.88,541.24 C599.88,545.44 601.56,549.36 605.06,552.3 C596.38,552.72 585.32,556.22 585.32,565.04 C585.32,577.64 603.24,584.36 622,584.36 Z M631.8,521.78 C628.02,521.78 626.9,517.02 626.9,511.7 C626.9,496.3 633.76,481.88 640.62,481.88 C644.4,481.88 645.66,486.64 645.66,491.82 C645.66,507.22 638.8,521.78 631.8,521.78 Z M623.12,577.92 C609.82,577.92 601,572.6 601,564.9 C601,560.28 603.66,557.34 608.14,555.38 L636.28,562.8 C641.46,564.2 643.98,565.32 643.98,568.82 C643.98,574.42 635.44,577.92 623.12,577.92 Z M707.82,470.12 C716.64,470.12 722.1,463.68 722.1,456.26 C722.1,449.54 716.92,444.08 708.8,444.08 C699.98,444.08 694.52,450.38 694.52,457.8 C694.52,464.38 699.56,470.12 707.82,470.12 Z M690.04,554.4 C701.1,554.4 708.52,547.26 718.32,533.68 L714.96,530.74 C709.64,537.32 706.14,540.68 703.62,540.68 C702.36,540.68 701.66,539.98 701.66,538.58 C701.66,537.46 702.08,535.36 702.78,532.84 L717.06,476.14 L712.72,476.14 L680.94,482.16 L680.1,485.94 L687.52,491.4 L677.72,530.04 C676.6,534.8 676.18,537.74 676.18,541.52 C676.18,548.66 680.94,554.4 690.04,554.4 Z M746.6,553 C753.32,521.5 764.52,498.82 775.58,498.82 C779.78,498.82 781.04,501.9 781.04,505.54 L782.16,505.54 C789.16,502.6 795.32,495.6 795.32,487.06 C795.32,480.62 791.54,476.14 785.1,476.14 C775.3,476.14 768.86,486.64 753.74,517.58 L760.32,497 L766.2,476.14 L761.86,476.14 L729.94,482.16 L729.1,485.94 L736.52,491.4 L721.12,553 L746.6,553 Z" transform="translate(-240 -443)"/>
</svg>
