<?xml version="1.0" standalone="no"?>
<!DOCTYPE svg PUBLIC "-//W3C//DTD SVG 20010904//EN"
 "http://www.w3.org/TR/2001/REC-SVG-20010904/DTD/svg10.dtd">
<svg version="1.0" xmlns="http://www.w3.org/2000/svg"
 width="700.000000pt" height="700.000000pt" viewBox="0 0 700.000000 700.000000"
 preserveAspectRatio="xMidYMid meet">
<metadata>
Created by potrace 1.14, written by Peter Selinger 2001-2017
</metadata>
<g transform="translate(0.000000,700.000000) scale(0.100000,-0.100000)"
fill="#000000" stroke="none">
<path d="M3278 6996 c-1 -2 -42 -6 -89 -10 -47 -4 -95 -8 -105 -10 -10 -2 -46
-7 -79 -11 -59 -7 -79 -10 -125 -20 -34 -7 -69 -14 -105 -21 -63 -11 -235 -57
-340 -91 -434 -139 -848 -369 -1200 -667 -87 -73 -332 -319 -407 -406 -401
-472 -696 -1112 -782 -1695 -2 -16 -8 -50 -12 -75 -21 -131 -29 -273 -29 -495
1 -196 6 -309 20 -412 10 -67 14 -99 20 -148 4 -27 10 -66 15 -85 5 -19 12
-48 14 -65 9 -48 13 -65 36 -155 21 -86 74 -259 89 -295 5 -11 28 -69 51 -130
44 -115 153 -340 223 -460 148 -256 363 -531 579 -742 82 -79 118 -112 228
-207 79 -68 418 -306 436 -306 2 0 23 -12 46 -26 54 -34 295 -155 378 -189
132 -54 249 -95 430 -149 39 -12 153 -39 215 -52 135 -27 153 -30 224 -40 25
-3 57 -8 71 -10 167 -26 633 -25 848 2 83 10 293 47 347 61 33 8 68 16 77 18
43 9 183 51 285 86 1051 362 1870 1205 2202 2264 61 197 117 453 136 630 4 33
9 71 11 85 9 46 11 524 4 605 -15 153 -21 210 -25 225 -2 8 -7 35 -10 60 -17
122 -62 312 -107 460 -134 432 -336 813 -626 1177 -77 96 -350 379 -442 459
-59 51 -241 188 -310 234 -36 24 -66 47 -68 52 -2 4 -7 8 -11 8 -5 0 -50 26
-102 57 -362 218 -831 389 -1234 449 -27 4 -57 9 -65 10 -8 2 -44 6 -80 9 -36
4 -76 9 -90 12 -27 5 -536 14 -542 9z m377 -511 c77 -3 158 -8 180 -10 839
-99 1588 -537 2087 -1220 89 -122 107 -152 202 -320 152 -271 277 -629 326
-935 7 -41 14 -82 15 -90 14 -75 20 -203 20 -410 0 -215 -4 -306 -20 -401 -2
-13 -9 -58 -15 -99 -73 -462 -293 -961 -588 -1335 -431 -545 -1004 -915 -1667
-1075 -66 -16 -138 -31 -160 -34 -22 -4 -53 -9 -70 -11 -74 -12 -90 -14 -153
-22 -85 -10 -525 -10 -617 0 -110 12 -262 37 -350 57 -893 204 -1655 811
-2043 1630 -71 148 -79 169 -123 291 -59 165 -117 394 -133 524 -4 28 -9 57
-11 65 -4 13 -11 82 -20 195 -5 58 -6 394 -1 435 3 19 7 64 11 100 31 320 132
671 280 975 88 178 116 228 203 360 343 517 852 922 1438 1146 99 37 344 111
410 123 264 48 313 54 489 62 77 4 142 8 143 10 2 1 9 1 15 -1 7 -2 75 -6 152
-10z"/>
<path d="M3658 5495 c-268 -57 -424 -336 -333 -594 82 -234 388 -336 626 -209
298 158 323 592 44 753 -94 54 -225 74 -337 50z"/>
<path d="M3885 4420 c-16 -4 -203 -47 -415 -94 -212 -48 -392 -89 -400 -91 -8
-1 -53 -11 -100 -21 -47 -9 -89 -20 -93 -24 -4 -4 -14 -30 -21 -58 l-14 -50
52 -32 c28 -18 67 -43 86 -55 19 -12 62 -39 95 -58 33 -20 66 -40 72 -45 10
-6 10 -17 2 -46 -6 -21 -12 -46 -14 -55 -2 -9 -80 -322 -175 -696 -177 -702
-234 -937 -244 -1008 -3 -23 -9 -53 -12 -67 -13 -56 -14 -295 0 -345 55 -208
217 -319 453 -310 237 8 433 132 688 436 11 13 53 69 94 124 41 55 87 117 102
137 16 20 34 48 40 62 11 23 9 28 -21 53 -71 60 -59 63 -157 -49 -156 -182
-296 -295 -368 -299 -53 -3 -64 1 -81 27 -25 38 -20 76 42 324 31 124 57 232
59 240 2 8 10 40 19 70 8 30 17 66 20 80 2 14 12 53 21 87 9 35 18 71 20 80 2
10 42 171 89 358 48 187 88 349 90 360 3 11 35 137 71 280 36 143 67 269 70
280 2 11 6 29 9 40 3 11 24 94 46 185 22 91 42 171 45 178 5 14 -118 16 -170
2z"/>
</g>
</svg>
